<?xml version="1.0" encoding="utf-8"?>
<!-- Generator: Adobe Illustrator 24.0.2, SVG Export Plug-In . SVG Version: 6.00 Build 0)  -->
<svg version="1.1" id="Layer_1" xmlns="http://www.w3.org/2000/svg" xmlns:xlink="http://www.w3.org/1999/xlink" x="0px" y="0px"
	 viewBox="0 0 630 630" style="enable-background:new 0 0 630 630;" xml:space="preserve">
<style type="text/css">
	.st0{fill:none;}
	.st1{fill:#008000;}
	.st2{fill:#FFFFFF;}
</style>
<g id="Ebene_1">
	<rect class="st0" width="630" height="630"/>
	<circle class="st1" cx="315" cy="315" r="300"/>
	<path class="st2" d="M417,217.4c-3.1-15.3-12.8-21.4-27.5-27.5c-14.4-6-49-13.2-74.6-13.4c-25.5,0.2-60.1,7.4-74.6,13.4
		c-14.6,6.1-24.4,12.2-27.5,27.5L202,302v116.6h18.9v18.3c0,22.3,32.6,22.3,32.6,0v-18.3h60.2h0.2h62.6v18.3
		c0,22.3,32.6,22.3,32.6,0v-18.3H428V302L417,217.4z M268.5,197.8h45.4h47.6c9.2,0,9.2,13.7,0,13.7h-47.7h-45.3
		C259.3,211.6,259.3,197.8,268.5,197.8z M237.2,382c-8.6,0-15.6-7-15.6-15.6c0-8.6,7-15.6,15.6-15.6s15.6,7,15.6,15.6
		C252.9,375,245.8,382,237.2,382z M313.9,310.9h-83c-8.1,0-9.8-5.8-9-11.7l8.6-61.4c1.2-7.5,3.7-12.4,13.4-12.4h70h72.4
		c9.7,0,12.2,4.9,13.4,12.4l8.6,61.4c0.8,5.9-0.9,11.7-9,11.7H313.9z M392.8,382c-8.6,0-15.6-7-15.6-15.6c0-8.6,7-15.6,15.6-15.6
		c8.6,0,15.6,7,15.6,15.6C408.4,375,401.4,382,392.8,382z"/>
</g>
</svg>
